# xmcd CD database file
#
# Track frame offsets:
#	150
#	14980
#	29306
#
# Disc length: 556 seconds
#
# Revision: 0
# Processed by: cddbd v1.5.2PL0 Copyright (c) Steve Scherf et al.
# Submitted via: CDex 1.70beta2
#
DISCID=21022a03
DTITLE=The Renegade Band - Shipwrecked EP
DYEAR=1998
DGENRE=Country
TTITLE0=Shipwrecked
TTITLE1=Guitar Boogie (180 bpm)
TTITLE2=Guitar Boogie (210 bpm)
EXTD=YEAR: 1998
EXTT0=
EXTT1=
EXTT2=
PLAYORDER=
